<svg width="49" height="20" viewBox="0 0 49 20" fill="none" xmlns="http://www.w3.org/2000/svg">
<path d="M22.6378 4.4281C22.0459 4.4281 21.5386 4.21493 21.1169 3.78745C20.6952 3.35996 20.4844 2.83569 20.4844 2.21463C20.4844 1.90352 20.5404 1.61661 20.6513 1.35274C20.7622 1.08888 20.9181 0.856122 21.118 0.653326C21.3178 0.451682 21.5474 0.292672 21.8065 0.175142C22.0657 0.0587648 22.3424 0 22.6389 0C22.9354 0 23.2088 0.0587648 23.4603 0.175142C23.7117 0.291519 23.938 0.451682 24.1378 0.653326C24.3377 0.85497 24.4936 1.08888 24.6045 1.35274C24.7154 1.61661 24.7714 1.90467 24.7714 2.21463C24.7714 2.52458 24.7165 2.81725 24.6045 3.08803C24.4936 3.35996 24.3377 3.59272 24.1378 3.78745C23.938 3.98218 23.7117 4.13658 23.4603 4.25296C23.2088 4.36934 22.9343 4.4281 22.6389 4.4281H22.6378Z" fill="#F9F8EF"/>
<path d="M30.544 4.4281C29.9522 4.4281 29.4448 4.21493 29.0231 3.78745C28.6015 3.35996 28.3906 2.83569 28.3906 2.21463C28.3906 1.90352 28.4466 1.61661 28.5575 1.35274C28.6684 1.08888 28.8244 0.856122 29.0242 0.653326C29.2241 0.451682 29.4536 0.292672 29.7128 0.175142C29.9719 0.0587648 30.2486 0 30.5451 0C30.8416 0 31.1151 0.0587648 31.3665 0.175142C31.618 0.291519 31.8442 0.451682 32.0441 0.653326C32.2439 0.85497 32.3999 1.08888 32.5108 1.35274C32.6217 1.61661 32.6777 1.90467 32.6777 2.21463C32.6777 2.52458 32.6228 2.81725 32.5108 3.08803C32.3999 3.35996 32.2439 3.59272 32.0441 3.78745C31.8442 3.98218 31.618 4.13658 31.3665 4.25296C31.1151 4.36934 30.8405 4.4281 30.5451 4.4281H30.544Z" fill="#F9F8EF"/>
<path d="M1.26763 9.76465C1.26763 9.1747 1.39282 8.65388 1.64538 8.20335C1.89685 7.75282 2.22958 7.37603 2.64467 7.07299C3.05866 6.76995 3.53305 6.54065 4.06564 6.3851C4.59823 6.22954 5.14619 6.15234 5.70843 6.15234C6.52213 6.15234 7.30729 6.32288 8.06279 6.6651C8.8183 7.00731 9.39481 7.52007 9.79453 8.20335C9.89775 8.37504 9.92411 8.55248 9.8725 8.73915C9.82088 8.92581 9.71327 9.06523 9.55075 9.15857L8.55146 9.7877C8.47679 9.84992 8.37356 9.88103 8.24069 9.88103C8.04852 9.88103 7.87831 9.80383 7.73006 9.64827C7.49287 9.36828 7.18979 9.16318 6.81972 9.03067C6.44966 8.89931 6.07959 8.83248 5.70952 8.83248C5.30981 8.83248 4.96171 8.91083 4.66631 9.06523C4.36982 9.22079 4.22267 9.44663 4.22267 9.74161C4.22267 10.0527 4.3819 10.3051 4.70035 10.4986C5.01881 10.6934 5.43719 10.8754 5.9555 11.046C6.79886 11.326 7.50605 11.6209 8.07597 11.9309C8.6459 12.242 9.10491 12.5796 9.45301 12.9449C9.80112 13.3101 10.0526 13.71 10.2085 14.1444C10.3645 14.5799 10.4413 15.0685 10.4413 15.6123C10.4413 16.2334 10.3084 16.7888 10.0416 17.2785C9.77476 17.7682 9.42007 18.1795 8.97533 18.5137C8.53169 18.8478 8.02436 19.1002 7.45444 19.2707C6.88451 19.4413 6.29592 19.5265 5.68866 19.5265C5.18572 19.5265 4.68937 19.4643 4.20071 19.3399C3.71204 19.2154 3.24974 19.0334 2.81269 18.7925C2.37563 18.5517 1.9836 18.2418 1.6355 17.8604C1.2874 17.4801 1.00957 17.033 0.803126 16.5203C0.728454 16.3336 0.732847 16.1435 0.814108 15.9499C0.895368 15.7564 1.03263 15.6273 1.2248 15.5651L2.89065 15.0062C3.05317 14.9601 3.2124 14.9751 3.36833 15.0523C3.52427 15.1307 3.63847 15.254 3.71204 15.4257C3.90422 15.8451 4.17875 16.1516 4.53344 16.3463C4.88923 16.541 5.25161 16.6378 5.62168 16.6378C6.02139 16.6378 6.37718 16.533 6.68795 16.3233C6.99872 16.1136 7.15465 15.8151 7.15465 15.4257C7.15465 15.0362 6.93612 14.6917 6.49907 14.3886C6.06202 14.0856 5.47343 13.7872 4.7333 13.491C4.31821 13.3205 3.90422 13.1338 3.48913 12.9322C3.07404 12.7305 2.70068 12.4863 2.36795 12.1982C2.03522 11.9113 1.76837 11.5691 1.56852 11.1727C1.36866 10.7763 1.26873 10.3074 1.26873 9.7635L1.26763 9.76465Z" fill="#F9F8EF"/>
<path d="M13.9081 15.4258C14.3968 15.4258 14.8151 15.609 15.1632 15.9731C15.5113 16.3384 15.6849 16.7774 15.6849 17.2901C15.6849 17.8029 15.5103 18.2649 15.1632 18.6302C14.8162 18.9955 14.3968 19.1775 13.9081 19.1775C13.4194 19.1775 12.9791 18.9955 12.631 18.6302C12.2829 18.2649 12.1094 17.819 12.1094 17.2901C12.1094 16.7612 12.2829 16.3384 12.631 15.9731C12.9791 15.6078 13.4041 15.4258 13.9081 15.4258Z" fill="#F9F8EF"/>
<path d="M30.6298 6.17592C31.3996 6.19205 32.1134 6.35913 32.7722 6.67715C33.4311 6.99517 34.001 7.42727 34.482 7.96998C34.963 8.51384 35.3407 9.15449 35.6142 9.89193C35.8876 10.6294 36.0249 11.4336 36.0249 12.3036V18.4785C36.0249 18.6652 35.9579 18.8276 35.825 18.9682C35.6921 19.1076 35.5285 19.1779 35.3363 19.1779H33.4047C33.2126 19.1779 33.049 19.1076 32.9161 18.9682C32.7832 18.8288 32.7162 18.6652 32.7162 18.4785V12.3969C32.7162 12.0858 32.6789 11.7759 32.6053 11.4648C32.5306 11.1536 32.4164 10.8702 32.2616 10.6144C32.1057 10.3586 31.8992 10.1408 31.6401 9.96222C31.3809 9.78362 31.0657 9.67877 30.6968 9.64765C30.0752 9.60156 29.5492 9.78708 29.1199 10.2065C28.6016 10.7192 28.3424 11.4106 28.3424 12.2805V18.4785C28.3424 18.6652 28.2754 18.8276 28.1426 18.9682C28.0097 19.1076 27.8537 19.1779 27.6759 19.1779H25.7212C25.529 19.1779 25.3698 19.1076 25.2435 18.9682C25.1172 18.8288 25.0546 18.6652 25.0546 18.4785V12.3969C25.0546 12.0858 25.0173 11.7759 24.9437 11.4648C24.8691 11.1536 24.7549 10.8702 24.6 10.6144C24.4441 10.3586 24.2376 10.1408 23.9785 9.96222C23.7193 9.78362 23.4042 9.67877 23.0352 9.64765C22.3983 9.60156 21.8657 9.78708 21.4363 10.2065C20.918 10.7192 20.6589 11.4187 20.6589 12.3036V18.4785C20.6589 18.6652 20.5952 18.8276 20.47 18.9682C20.3437 19.1076 20.1845 19.1779 19.9923 19.1779H18.0377C17.8598 19.1779 17.7049 19.1076 17.571 18.9682C17.437 18.8288 17.3711 18.6652 17.3711 18.4785V12.443C17.3711 11.6203 17.5084 10.8276 17.7818 10.0659C18.0552 9.30544 18.4363 8.63252 18.9249 8.05063C19.4136 7.46875 19.9978 7.0067 20.6797 6.66448C21.3606 6.32341 22.1161 6.15979 22.9452 6.17477C23.7007 6.20588 24.4002 6.3695 25.0437 6.66448C25.6872 6.95945 26.2461 7.37196 26.7205 7.89969C26.7798 7.83747 26.8171 7.79138 26.8314 7.76027C27.3497 7.24752 27.9339 6.85114 28.5862 6.5723C29.2374 6.2923 29.9182 6.16094 30.6287 6.17592H30.6298Z" fill="#F9F8EF"/>
<path d="M48.7032 17.7813C48.8218 18.1696 48.7109 18.4576 48.3704 18.6432C47.9268 18.8609 47.3525 19.0591 46.6497 19.2377C45.9458 19.4163 45.0398 19.5062 43.9296 19.5062C42.9666 19.5062 42.098 19.3622 41.3205 19.0752C40.543 18.7883 39.8776 18.3689 39.3219 17.817C38.7663 17.2662 38.3369 16.5933 38.0338 15.8017C37.7308 15.009 37.5781 14.116 37.5781 13.1216V12.3288C37.5781 11.2261 37.745 10.2859 38.0778 9.50926C38.4105 8.73264 38.8476 8.09199 39.3878 7.5873C39.9281 7.08262 40.5387 6.7139 41.2195 6.47999C41.9003 6.24724 42.5965 6.13086 43.307 6.13086C43.9736 6.13086 44.6248 6.24378 45.2617 6.46847C45.8975 6.69431 46.4718 7.03538 46.9824 7.49397C47.493 7.95257 47.9037 8.51948 48.2145 9.19469C48.5253 9.86991 48.6812 10.6511 48.6812 11.5361V11.6997L48.6593 11.77V11.8633L48.6812 11.9336V12.3761C48.6812 12.8738 48.5176 13.2933 48.1925 13.6343C47.8675 13.9754 47.4744 14.1471 47.0154 14.1471H40.8637C40.9823 14.4893 41.1525 14.7877 41.3743 15.0447C41.5961 15.3016 41.8553 15.5102 42.1518 15.6738C42.4483 15.8374 42.77 15.9619 43.1181 16.0471C43.4662 16.1324 43.81 16.175 44.1504 16.175C44.8751 16.175 45.4934 16.1094 46.0051 15.9768C46.5157 15.8455 46.9264 15.7015 47.2372 15.5459C47.4294 15.4687 47.6149 15.4722 47.7928 15.5574C47.9707 15.6427 48.0893 15.7867 48.1486 15.9884L48.7043 17.7824L48.7032 17.7813ZM43.2631 9.50926C42.982 9.50926 42.7074 9.54037 42.4417 9.60259C42.1749 9.66481 41.9267 9.76621 41.6983 9.90563C41.4688 10.0451 41.2722 10.2283 41.1097 10.453C40.9461 10.6788 40.8351 10.9542 40.7769 11.2803H45.7295C45.6855 10.9692 45.5856 10.7018 45.4297 10.476C45.2737 10.2513 45.0816 10.0681 44.8521 9.92868C44.6226 9.78926 44.3711 9.6844 44.0966 9.61411C43.822 9.54383 43.5453 9.50926 43.2642 9.50926H43.2631Z" fill="#F9F8EF"/>
</svg>
