<svg width="174" height="26" viewBox="0 0 174 26" fill="none" xmlns="http://www.w3.org/2000/svg">
<path d="M0.582052 10.4638C0.582052 9.83161 0.722817 9.27349 1.00682 8.79069C1.28958 8.30789 1.66372 7.90411 2.13047 7.57937C2.59598 7.25462 3.12941 7.0089 3.72828 6.8422C4.32715 6.6755 4.94331 6.59277 5.57552 6.59277C6.49049 6.59277 7.37336 6.77552 8.22289 7.14225C9.07243 7.50898 9.72069 8.05846 10.1701 8.79069C10.2862 8.97467 10.3159 9.16483 10.2578 9.36486C10.1998 9.5649 10.0788 9.71431 9.89603 9.81432L8.77237 10.4885C8.68841 10.5552 8.57234 10.5885 8.42293 10.5885C8.20684 10.5885 8.01545 10.5058 7.84875 10.3391C7.58204 10.0391 7.24124 9.81926 6.82512 9.67726C6.409 9.5365 5.99287 9.46488 5.57675 9.46488C5.12729 9.46488 4.73586 9.54885 4.40371 9.71431C4.07032 9.881 3.90485 10.123 3.90485 10.4391C3.90485 10.7725 4.0839 11.0429 4.44199 11.2504C4.80007 11.4591 5.27053 11.6542 5.85334 11.8369C6.80166 12.137 7.59686 12.4531 8.23771 12.7852C8.87856 13.1186 9.3947 13.4804 9.78613 13.8718C10.1776 14.2633 10.4603 14.6917 10.6357 15.1572C10.811 15.624 10.8974 16.1475 10.8974 16.7303C10.8974 17.3959 10.748 17.9911 10.448 18.5158C10.1479 19.0406 9.74909 19.4814 9.249 19.8395C8.75015 20.1976 8.17968 20.468 7.53882 20.6508C6.89797 20.8335 6.23613 20.9249 5.55329 20.9249C4.98776 20.9249 4.42964 20.8582 3.88016 20.7249C3.33068 20.5915 2.81084 20.3964 2.31939 20.1384C1.82795 19.8803 1.38713 19.5481 0.995704 19.1394C0.604278 18.7319 0.291877 18.2528 0.0597381 17.7034C-0.0242272 17.5033 -0.0192881 17.2996 0.0720859 17.0921C0.16346 16.8847 0.317808 16.7464 0.533895 16.6797L2.40706 16.0809C2.58981 16.0315 2.76885 16.0475 2.94419 16.1302C3.11953 16.2142 3.24795 16.3463 3.33068 16.5303C3.54677 16.9798 3.85546 17.3082 4.2543 17.5169C4.65437 17.7256 5.06185 17.8293 5.47797 17.8293C5.92743 17.8293 6.3275 17.7169 6.67694 17.4922C7.02639 17.2675 7.20173 16.9477 7.20173 16.5303C7.20173 16.113 6.95601 15.7438 6.46456 15.419C5.97312 15.0943 5.31127 14.7745 4.47903 14.4571C4.01228 14.2744 3.54677 14.0743 3.08002 13.8582C2.61327 13.6422 2.19344 13.3804 1.8193 13.0717C1.44517 12.7642 1.14511 12.3975 0.920382 11.9727C0.695652 11.548 0.583286 11.0454 0.583286 10.4626L0.582052 10.4638Z" fill="#F2F1E7"/>
<path d="M26.3016 7.04297C26.5844 7.04297 26.8004 7.15904 26.9511 7.39241C27.1005 7.62579 27.1178 7.87521 27.0005 8.14193L19.3843 24.5226C19.3004 24.7226 19.1682 24.8844 18.9843 25.0091C18.8015 25.1338 18.5928 25.1968 18.3595 25.1968H16.0121C15.7294 25.1968 15.5133 25.0807 15.3626 24.8473C15.2132 24.6139 15.1959 24.3645 15.3132 24.0978L17.5852 19.2031L12.1917 8.14069C12.0584 7.89127 12.067 7.64554 12.2164 7.40476C12.3658 7.16398 12.5819 7.04297 12.8659 7.04297H15.2132C15.4466 7.04297 15.654 7.101 15.838 7.21831C16.0208 7.33438 16.1541 7.49243 16.2381 7.69247L19.6844 14.7097L22.9059 7.7184C23.006 7.51836 23.1467 7.3566 23.3307 7.23189C23.5134 7.10718 23.7221 7.0442 23.9555 7.0442H26.3028L26.3016 7.04297Z" fill="#F2F1E7"/>
<path d="M34.8661 6.61868C35.665 6.61868 36.4602 6.75574 37.2504 7.0311C38.0407 7.30522 38.7569 7.72258 39.3977 8.27946C40.0386 8.83759 40.5547 9.54882 40.9461 10.4144C41.3376 11.28 41.5327 12.3036 41.5327 13.4853V19.8025C41.5327 20.0025 41.4573 20.1766 41.3079 20.3273C41.1585 20.4779 40.9745 20.552 40.7585 20.552H38.5865C38.3704 20.552 38.1864 20.4767 38.037 20.3273C37.8876 20.1778 37.8123 20.0025 37.8123 19.8025V13.0852C37.8123 12.6358 37.7246 12.2357 37.5505 11.8863C37.3751 11.5368 37.1418 11.2417 36.8516 10.9997C36.5602 10.7589 36.2317 10.5799 35.865 10.4626C35.4983 10.3465 35.1241 10.2872 34.7414 10.2872C34.3919 10.2872 34.0375 10.3416 33.6807 10.449C33.3226 10.5576 32.9978 10.728 32.7064 10.9614C32.415 11.1948 32.1817 11.4862 32.0075 11.8356C31.8322 12.1851 31.7458 12.6012 31.7458 13.084V19.8012C31.7458 20.0013 31.6742 20.1754 31.5334 20.326C31.3914 20.4754 31.2123 20.5507 30.9963 20.5507H28.7983C28.5983 20.5507 28.4242 20.4754 28.2736 20.326C28.1229 20.1766 28.0488 20.0013 28.0488 19.8012V13.6335C28.0488 12.4345 28.2489 11.3948 28.6477 10.512C29.0478 9.63032 29.5713 8.9018 30.2208 8.32762C30.8703 7.75345 31.6025 7.32498 32.4187 7.04098C33.2337 6.75821 34.0499 6.61621 34.8661 6.61621V6.61868Z" fill="#F2F1E7"/>
<path d="M50.7973 20.9517C49.9145 20.9517 49.1452 20.8097 48.487 20.5269C47.8289 20.2442 47.2844 19.8774 46.851 19.428C46.4175 18.9785 46.0928 18.4797 45.8767 17.9302C45.6606 17.3807 45.552 16.8312 45.552 16.2818V10.3387H43.7788C43.5788 10.3387 43.4047 10.2684 43.254 10.1264C43.1046 9.98559 43.0293 9.80654 43.0293 9.58922V7.79138C43.0293 7.57529 43.1046 7.39131 43.254 7.2419C43.4034 7.09249 43.5788 7.01717 43.7788 7.01717H45.552V4.56983C45.552 4.35374 45.6223 4.1747 45.7643 4.0327C45.9063 3.8907 46.0842 3.82031 46.3015 3.82031H48.4994C48.6994 3.82031 48.8735 3.89193 49.0242 4.0327C49.1736 4.1747 49.2489 4.35374 49.2489 4.56983V7.01717H52.2704C52.4705 7.01717 52.6446 7.09249 52.7952 7.2419C52.9446 7.39131 53.0199 7.57529 53.0199 7.79138V9.58922C53.0199 9.80531 52.9446 9.98435 52.7952 10.1264C52.6458 10.2684 52.4705 10.3387 52.2704 10.3387H49.2489V15.2075C49.2489 15.3915 49.2699 15.5989 49.3119 15.8323C49.3526 16.0657 49.4279 16.2904 49.5366 16.5065C49.6453 16.7226 49.8021 16.9016 50.0108 17.0436C50.2182 17.1856 50.4812 17.256 50.7973 17.256C51.1134 17.256 51.3876 17.219 51.6209 17.1436C51.8543 17.0683 52.0531 16.9819 52.2198 16.8819C52.3359 16.8152 52.4692 16.7818 52.6199 16.7818C52.9026 16.7818 53.1187 16.8991 53.2694 17.1313L54.3436 18.8291C54.4436 18.9958 54.4807 19.1748 54.456 19.3662C54.4313 19.5576 54.335 19.712 54.1683 19.8281C53.6855 20.1948 53.1521 20.4738 52.5705 20.664C51.9877 20.8554 51.3974 20.9517 50.7973 20.9517Z" fill="#F2F1E7"/>
<path d="M62.882 10.2893C62.5325 10.2893 62.1782 10.3437 61.8213 10.4511C61.4632 10.5597 61.1385 10.7301 60.8471 10.9635C60.5556 11.1969 60.3223 11.492 60.1482 11.8501C59.9728 12.2082 59.8864 12.628 59.8864 13.1108V19.8033C59.8864 20.0034 59.8148 20.1775 59.674 20.3281C59.532 20.4775 59.353 20.5529 59.1369 20.5529H56.939C56.7389 20.5529 56.5648 20.4775 56.4142 20.3281C56.2648 20.1787 56.1895 20.0034 56.1895 19.8033V1.72363C56.1895 1.5236 56.2648 1.3495 56.4142 1.19885C56.5636 1.04944 56.7389 0.974121 56.939 0.974121H59.1369C59.353 0.974121 59.532 1.04944 59.674 1.19885C59.8148 1.34826 59.8864 1.5236 59.8864 1.72363V7.64195C60.5186 7.25917 61.1804 6.98505 61.8719 6.81835C62.5622 6.65166 63.2413 6.60227 63.9069 6.66894C64.6218 6.71834 65.3256 6.89738 66.0171 7.20607C66.7073 7.51477 67.3235 7.95188 67.8643 8.51742C68.4052 9.08295 68.8423 9.77813 69.1757 10.603C69.5091 11.4266 69.6745 12.3885 69.6745 13.4874V19.8046C69.6745 20.0046 69.5992 20.1787 69.4498 20.3294C69.3004 20.4788 69.1164 20.5541 68.9003 20.5541H66.7283C66.5122 20.5541 66.3283 20.4788 66.1789 20.3294C66.0294 20.1799 65.9541 20.0046 65.9541 19.8046V13.112C65.9541 12.6799 65.8702 12.2884 65.7047 11.939C65.538 11.5896 65.3182 11.2944 65.0429 11.0524C64.7687 10.8116 64.444 10.624 64.0686 10.4906C63.6945 10.3572 63.2981 10.2906 62.882 10.2906V10.2893Z" fill="#F2F1E7"/>
<path d="M83.9334 19.0537C84.0668 19.4699 83.9421 19.7786 83.5593 19.9774C83.0604 20.2107 82.4146 20.4231 81.6244 20.6145C80.8329 20.8059 79.8142 20.9022 78.5658 20.9022C77.4829 20.9022 76.5062 20.7479 75.632 20.4404C74.7577 20.1329 74.0095 19.6835 73.3847 19.092C72.7599 18.5018 72.2771 17.7807 71.9363 16.9324C71.5955 16.0829 71.4238 15.1259 71.4238 14.0603V13.2108C71.4238 12.0291 71.6115 11.0215 71.9857 10.1892C72.3598 9.35699 72.8512 8.67045 73.4587 8.12961C74.0663 7.58878 74.7528 7.19365 75.5184 6.94299C76.2839 6.69356 77.0668 6.56885 77.8657 6.56885C78.6152 6.56885 79.3474 6.68986 80.0636 6.93064C80.7785 7.17266 81.4243 7.53815 81.9985 8.0296C82.5727 8.52104 83.0345 9.12855 83.3839 9.85214C83.7334 10.5757 83.9087 11.4129 83.9087 12.3612V12.5366L83.884 12.6119V12.7119L83.9087 12.7872V13.2614C83.9087 13.7948 83.7247 14.2443 83.3592 14.6098C82.9937 14.9753 82.5517 15.1592 82.0356 15.1592H75.1183C75.2517 15.526 75.443 15.8458 75.6925 16.1211C75.9419 16.3965 76.2333 16.62 76.5667 16.7953C76.9001 16.9707 77.2619 17.104 77.6533 17.1954C78.0447 17.2868 78.4312 17.3325 78.814 17.3325C79.629 17.3325 80.3241 17.2621 80.8996 17.1201C81.4737 16.9793 81.9355 16.825 82.285 16.6583C82.5011 16.5755 82.7098 16.5792 82.9098 16.6706C83.1098 16.762 83.2432 16.9163 83.3099 17.1324L83.9347 19.055L83.9334 19.0537ZM77.8151 10.1892C77.499 10.1892 77.1903 10.2226 76.8914 10.2893C76.5914 10.3559 76.3123 10.4646 76.0555 10.614C75.7974 10.7634 75.5764 10.9597 75.3937 11.2005C75.2097 11.4425 75.085 11.7377 75.0195 12.0871H80.5884C80.539 11.7537 80.4266 11.4672 80.2513 11.2252C80.076 10.9844 79.8599 10.7881 79.6018 10.6387C79.3437 10.4893 79.061 10.3769 78.7523 10.3016C78.4436 10.2263 78.1324 10.1892 77.8163 10.1892H77.8151Z" fill="#F2F1E7"/>
<path d="M85.9805 10.4638C85.9805 9.83161 86.1213 9.27349 86.4053 8.79069C86.688 8.30789 87.0622 7.90411 87.5289 7.57937C87.9944 7.25462 88.5278 7.0089 89.1267 6.8422C89.7256 6.6755 90.3417 6.59277 90.974 6.59277C91.8889 6.59277 92.7718 6.77552 93.6213 7.14225C94.4709 7.50898 95.1191 8.05846 95.5686 8.79069C95.6847 8.97467 95.7143 9.16483 95.6563 9.36486C95.5982 9.5649 95.4772 9.71431 95.2945 9.81432L94.1708 10.4885C94.0868 10.5552 93.9708 10.5885 93.8214 10.5885C93.6053 10.5885 93.4139 10.5058 93.2472 10.3391C92.9805 10.0391 92.6397 9.81926 92.2236 9.67726C91.8074 9.5365 91.3913 9.46488 90.9752 9.46488C90.5257 9.46488 90.1343 9.54885 89.8021 9.71431C89.4688 9.881 89.3033 10.123 89.3033 10.4391C89.3033 10.7725 89.4823 11.0429 89.8404 11.2504C90.1985 11.4591 90.669 11.6542 91.2518 11.8369C92.2001 12.137 92.9953 12.4531 93.6362 12.7852C94.277 13.1186 94.7931 13.4804 95.1846 13.8718C95.576 14.2633 95.8588 14.6917 96.0341 15.1572C96.2094 15.624 96.2959 16.1475 96.2959 16.7303C96.2959 17.3959 96.1465 17.9911 95.8464 18.5158C95.5464 19.0406 95.1475 19.4814 94.6474 19.8395C94.1486 20.1976 93.5781 20.468 92.9373 20.6508C92.2964 20.8335 91.6346 20.9249 90.9517 20.9249C90.3862 20.9249 89.8281 20.8582 89.2786 20.7249C88.7291 20.5915 88.2093 20.3964 87.7178 20.1384C87.2264 19.8803 86.7856 19.5481 86.3941 19.1394C86.0027 18.7319 85.6903 18.2528 85.4582 17.7034C85.3742 17.5033 85.3792 17.2996 85.4705 17.0921C85.5619 16.8847 85.7162 16.7464 85.9323 16.6797L87.8055 16.0809C87.9882 16.0315 88.1673 16.0475 88.3426 16.1302C88.518 16.2142 88.6464 16.3463 88.7291 16.5303C88.9452 16.9798 89.2539 17.3082 89.6527 17.5169C90.0528 17.7256 90.4603 17.8293 90.8764 17.8293C91.3259 17.8293 91.7259 17.7169 92.0754 17.4922C92.4248 17.2675 92.6002 16.9477 92.6002 16.5303C92.6002 16.113 92.3544 15.7438 91.863 15.419C91.3716 15.0943 90.7097 14.7745 89.8775 14.4571C89.4107 14.2744 88.9452 14.0743 88.4785 13.8582C88.0117 13.6422 87.5919 13.3804 87.2177 13.0717C86.8436 12.7642 86.5436 12.3975 86.3188 11.9727C86.0941 11.548 85.9817 11.0454 85.9817 10.4626L85.9805 10.4638Z" fill="#F2F1E7"/>
<path d="M100.936 20.5516C100.72 20.5516 100.541 20.4762 100.399 20.3268C100.257 20.1774 100.187 20.0021 100.187 19.802V10.3387H98.689C98.4889 10.3387 98.3148 10.2683 98.1642 10.1263C98.0148 9.98551 97.9395 9.80647 97.9395 9.58914V7.7913C97.9395 7.57521 98.0148 7.39123 98.1642 7.24182C98.3136 7.09241 98.4889 7.01709 98.689 7.01709H103.108C103.324 7.01709 103.508 7.09241 103.658 7.24182C103.807 7.39123 103.882 7.57521 103.882 7.7913V19.802C103.882 20.0021 103.807 20.1762 103.658 20.3268C103.508 20.4762 103.324 20.5516 103.108 20.5516H100.936Z" fill="#F2F1E7"/>
<path d="M102.035 4.74527C101.369 4.74527 100.799 4.51684 100.325 4.05873C99.8504 3.60063 99.6133 3.0388 99.6133 2.37325C99.6133 2.03986 99.6763 1.7324 99.801 1.44964C99.9257 1.16687 100.101 0.917444 100.326 0.700122C100.55 0.484035 100.809 0.313635 101.1 0.187687C101.391 0.062974 101.703 0 102.036 0C102.369 0 102.677 0.062974 102.96 0.187687C103.242 0.3124 103.497 0.484035 103.721 0.700122C103.946 0.91621 104.121 1.16687 104.246 1.44964C104.371 1.7324 104.434 2.0411 104.434 2.37325C104.434 2.70541 104.372 3.01905 104.246 3.30922C104.121 3.60063 103.946 3.85006 103.721 4.05873C103.497 4.26741 103.242 4.43287 102.96 4.55759C102.677 4.6823 102.368 4.74527 102.036 4.74527H102.035Z" fill="#F2F1E7"/>
<path d="M34.8628 4.74527C34.1973 4.74527 33.6268 4.51684 33.1526 4.05873C32.6785 3.60063 32.4414 3.0388 32.4414 2.37325C32.4414 2.03986 32.5044 1.7324 32.6291 1.44964C32.7538 1.16687 32.9291 0.917444 33.1539 0.700122C33.3786 0.484035 33.6367 0.313635 33.9281 0.187687C34.2195 0.062974 34.5307 0 34.8641 0C35.1974 0 35.5049 0.062974 35.7877 0.187687C36.0704 0.3124 36.3248 0.484035 36.5495 0.700122C36.7743 0.91621 36.9496 1.16687 37.0743 1.44964C37.199 1.7324 37.262 2.0411 37.262 2.37325C37.262 2.70541 37.2003 3.01905 37.0743 3.30922C36.9496 3.60063 36.7743 3.85006 36.5495 4.05873C36.3248 4.26741 36.0704 4.43287 35.7877 4.55759C35.5049 4.6823 35.1962 4.74527 34.8641 4.74527H34.8628Z" fill="#F2F1E7"/>
<path d="M144.636 4.74527C143.971 4.74527 143.4 4.51684 142.926 4.05873C142.452 3.60063 142.215 3.0388 142.215 2.37325C142.215 2.03986 142.278 1.7324 142.403 1.44964C142.527 1.16687 142.703 0.917444 142.927 0.700122C143.152 0.484035 143.41 0.313635 143.702 0.187687C143.993 0.062974 144.304 0 144.637 0C144.971 0 145.278 0.062974 145.561 0.187687C145.844 0.3124 146.098 0.484035 146.323 0.700122C146.548 0.91621 146.723 1.16687 146.848 1.44964C146.972 1.7324 147.035 2.0411 147.035 2.37325C147.035 2.70541 146.974 3.01905 146.848 3.30922C146.723 3.60063 146.548 3.85006 146.323 4.05873C146.098 4.26741 145.844 4.43287 145.561 4.55759C145.278 4.6823 144.97 4.74527 144.637 4.74527H144.636Z" fill="#F2F1E7"/>
<path d="M153.527 4.74527C152.861 4.74527 152.291 4.51684 151.817 4.05873C151.343 3.60063 151.105 3.0388 151.105 2.37325C151.105 2.03986 151.168 1.7324 151.293 1.44964C151.418 1.16687 151.593 0.917444 151.818 0.700122C152.043 0.484035 152.301 0.313635 152.592 0.187687C152.884 0.062974 153.195 0 153.528 0C153.862 0 154.169 0.062974 154.452 0.187687C154.734 0.3124 154.989 0.484035 155.214 0.700122C155.438 0.91621 155.614 1.16687 155.738 1.44964C155.863 1.7324 155.926 2.0411 155.926 2.37325C155.926 2.70541 155.864 3.01905 155.738 3.30922C155.614 3.60063 155.438 3.85006 155.214 4.05873C154.989 4.26741 154.734 4.43287 154.452 4.55759C154.169 4.6823 153.86 4.74527 153.528 4.74527H153.527Z" fill="#F2F1E7"/>
<path d="M106.654 10.4638C106.654 9.83161 106.795 9.27349 107.079 8.79069C107.362 8.30789 107.736 7.90411 108.203 7.57937C108.668 7.25462 109.202 7.0089 109.801 6.8422C110.399 6.6755 111.016 6.59277 111.648 6.59277C112.563 6.59277 113.446 6.77552 114.295 7.14225C115.145 7.50898 115.793 8.05846 116.242 8.79069C116.358 8.97467 116.388 9.16483 116.33 9.36486C116.272 9.5649 116.151 9.71431 115.968 9.81432L114.845 10.4885C114.761 10.5552 114.645 10.5885 114.495 10.5885C114.279 10.5885 114.088 10.5058 113.921 10.3391C113.654 10.0391 113.314 9.81926 112.897 9.67726C112.481 9.5365 112.065 9.46488 111.649 9.46488C111.2 9.46488 110.808 9.54885 110.476 9.71431C110.143 9.881 109.977 10.123 109.977 10.4391C109.977 10.7725 110.156 11.0429 110.514 11.2504C110.872 11.4591 111.343 11.6542 111.926 11.8369C112.874 12.137 113.669 12.4531 114.31 12.7852C114.951 13.1186 115.467 13.4804 115.858 13.8718C116.25 14.2633 116.533 14.6917 116.708 15.1572C116.883 15.624 116.97 16.1475 116.97 16.7303C116.97 17.3959 116.82 17.9911 116.52 18.5158C116.22 19.0406 115.821 19.4814 115.321 19.8395C114.822 20.1976 114.252 20.468 113.611 20.6508C112.97 20.8335 112.308 20.9249 111.626 20.9249C111.06 20.9249 110.502 20.8582 109.952 20.7249C109.403 20.5915 108.883 20.3964 108.392 20.1384C107.9 19.8803 107.459 19.5481 107.068 19.1394C106.677 18.7319 106.364 18.2528 106.132 17.7034C106.048 17.5033 106.053 17.2996 106.144 17.0921C106.236 16.8847 106.39 16.7464 106.606 16.6797L108.479 16.0809C108.662 16.0315 108.841 16.0475 109.016 16.1302C109.192 16.2142 109.32 16.3463 109.403 16.5303C109.619 16.9798 109.928 17.3082 110.327 17.5169C110.727 17.7256 111.134 17.8293 111.55 17.8293C112 17.8293 112.4 17.7169 112.749 17.4922C113.099 17.2675 113.274 16.9477 113.274 16.5303C113.274 16.113 113.028 15.7438 112.537 15.419C112.045 15.0943 111.384 14.7745 110.551 14.4571C110.085 14.2744 109.619 14.0743 109.152 13.8582C108.686 13.6422 108.266 13.3804 107.892 13.0717C107.517 12.7642 107.217 12.3975 106.993 11.9727C106.768 11.548 106.656 11.0454 106.656 10.4626L106.654 10.4638Z" fill="#F2F1E7"/>
<path d="M130.951 19.0537C131.084 19.4699 130.96 19.7786 130.577 19.9774C130.078 20.2107 129.432 20.4231 128.642 20.6145C127.85 20.8059 126.832 20.9022 125.583 20.9022C124.5 20.9022 123.524 20.7479 122.65 20.4404C121.775 20.1329 121.027 19.6835 120.402 19.092C119.777 18.5018 119.295 17.7807 118.954 16.9324C118.613 16.0829 118.441 15.1259 118.441 14.0603V13.2108C118.441 12.0291 118.629 11.0215 119.003 10.1892C119.377 9.35699 119.869 8.67045 120.476 8.12961C121.084 7.58878 121.77 7.19365 122.536 6.94299C123.302 6.69356 124.084 6.56885 124.883 6.56885C125.633 6.56885 126.365 6.68986 127.081 6.93064C127.796 7.17266 128.442 7.53815 129.016 8.0296C129.59 8.52104 130.052 9.12855 130.402 9.85214C130.751 10.5757 130.926 11.4129 130.926 12.3612V12.5366L130.902 12.6119V12.7119L130.926 12.7872V13.2614C130.926 13.7948 130.742 14.2443 130.377 14.6098C130.011 14.9753 129.569 15.1592 129.053 15.1592H122.136C122.269 15.526 122.461 15.8458 122.71 16.1211C122.959 16.3965 123.251 16.62 123.584 16.7953C123.918 16.9707 124.279 17.104 124.671 17.1954C125.062 17.2868 125.449 17.3325 125.832 17.3325C126.647 17.3325 127.342 17.2621 127.917 17.1201C128.491 16.9793 128.953 16.825 129.303 16.6583C129.519 16.5755 129.727 16.5792 129.927 16.6706C130.127 16.762 130.261 16.9163 130.327 17.1324L130.952 19.055L130.951 19.0537ZM124.833 10.1892C124.517 10.1892 124.208 10.2226 123.909 10.2893C123.609 10.3559 123.33 10.4646 123.073 10.614C122.815 10.7634 122.594 10.9597 122.411 11.2005C122.227 11.4425 122.103 11.7377 122.037 12.0871H127.606C127.557 11.7537 127.444 11.4672 127.269 11.2252C127.094 10.9844 126.877 10.7881 126.619 10.6387C126.361 10.4893 126.079 10.3769 125.77 10.3016C125.461 10.2263 125.15 10.1892 124.834 10.1892H124.833Z" fill="#F2F1E7"/>
<path d="M134.821 16.5312C135.371 16.5312 135.841 16.7276 136.233 17.1178C136.624 17.5092 136.819 17.9797 136.819 18.5291C136.819 19.0786 136.623 19.5738 136.233 19.9652C135.843 20.3566 135.371 20.5517 134.821 20.5517C134.272 20.5517 133.777 20.3566 133.385 19.9652C132.994 19.5738 132.799 19.0959 132.799 18.5291C132.799 17.9624 132.994 17.5092 133.385 17.1178C133.777 16.7263 134.255 16.5312 134.821 16.5312Z" fill="#F2F1E7"/>
<path d="M153.622 6.61846C154.487 6.63574 155.29 6.81479 156.031 7.15559C156.772 7.49639 157.412 7.95943 157.953 8.54101C158.494 9.12383 158.919 9.81037 159.226 10.6006C159.534 11.3909 159.688 12.2528 159.688 13.185V19.8022C159.688 20.0023 159.613 20.1764 159.463 20.327C159.314 20.4764 159.13 20.5518 158.914 20.5518H156.742C156.526 20.5518 156.342 20.4764 156.192 20.327C156.043 20.1776 155.968 20.0023 155.968 19.8022V13.2851C155.968 12.9517 155.926 12.6195 155.843 12.2861C155.759 11.9527 155.631 11.649 155.457 11.3748C155.281 11.1007 155.049 10.8673 154.758 10.676C154.466 10.4846 154.112 10.3722 153.697 10.3389C152.998 10.2895 152.407 10.4883 151.924 10.9377C151.341 11.4872 151.05 12.2281 151.05 13.1603V19.8022C151.05 20.0023 150.974 20.1764 150.825 20.327C150.675 20.4764 150.5 20.5518 150.3 20.5518H148.102C147.886 20.5518 147.707 20.4764 147.565 20.327C147.423 20.1776 147.353 20.0023 147.353 19.8022V13.2851C147.353 12.9517 147.311 12.6195 147.228 12.2861C147.144 11.9527 147.016 11.649 146.841 11.3748C146.666 11.1007 146.434 10.8673 146.143 10.676C145.851 10.4846 145.497 10.3722 145.082 10.3389C144.366 10.2895 143.767 10.4883 143.284 10.9377C142.701 11.4872 142.41 12.2367 142.41 13.185V19.8022C142.41 20.0023 142.338 20.1764 142.197 20.327C142.055 20.4764 141.876 20.5518 141.66 20.5518H139.462C139.262 20.5518 139.088 20.4764 138.938 20.327C138.787 20.1776 138.713 20.0023 138.713 19.8022V13.3344C138.713 12.4528 138.867 11.6033 139.175 10.7871C139.482 9.97213 139.911 9.25101 140.46 8.62745C141.01 8.00388 141.666 7.50873 142.433 7.142C143.199 6.77651 144.048 6.60117 144.981 6.61722C145.83 6.65056 146.617 6.8259 147.34 7.142C148.064 7.45811 148.692 7.90016 149.226 8.46569C149.293 8.39901 149.335 8.34962 149.351 8.31628C149.933 7.7668 150.59 7.34204 151.324 7.04322C152.056 6.74317 152.822 6.6024 153.62 6.61846H153.622Z" fill="#F2F1E7"/>
<path d="M173.949 19.0537C174.082 19.4699 173.958 19.7786 173.575 19.9774C173.076 20.2107 172.43 20.4231 171.64 20.6145C170.849 20.8059 169.83 20.9022 168.581 20.9022C167.499 20.9022 166.522 20.7479 165.648 20.4404C164.773 20.1329 164.025 19.6835 163.4 19.092C162.775 18.5018 162.293 17.7807 161.952 16.9324C161.611 16.0829 161.439 15.1259 161.439 14.0603V13.2108C161.439 12.0291 161.627 11.0215 162.001 10.1892C162.375 9.35699 162.867 8.67045 163.474 8.12961C164.082 7.58878 164.768 7.19365 165.534 6.94299C166.3 6.69356 167.082 6.56885 167.881 6.56885C168.631 6.56885 169.363 6.68986 170.079 6.93064C170.794 7.17266 171.44 7.53815 172.014 8.0296C172.588 8.52104 173.05 9.12855 173.4 9.85214C173.749 10.5757 173.924 11.4129 173.924 12.3612V12.5366L173.9 12.6119V12.7119L173.924 12.7872V13.2614C173.924 13.7948 173.74 14.2443 173.375 14.6098C173.009 14.9753 172.567 15.1592 172.051 15.1592H165.134C165.267 15.526 165.459 15.8458 165.708 16.1211C165.958 16.3965 166.249 16.62 166.582 16.7953C166.916 16.9707 167.278 17.104 167.669 17.1954C168.06 17.2868 168.447 17.3325 168.83 17.3325C169.645 17.3325 170.34 17.2621 170.915 17.1201C171.489 16.9793 171.951 16.825 172.301 16.6583C172.517 16.5755 172.725 16.5792 172.925 16.6706C173.125 16.762 173.259 16.9163 173.325 17.1324L173.95 19.055L173.949 19.0537ZM167.832 10.1892C167.516 10.1892 167.207 10.2226 166.908 10.2893C166.608 10.3559 166.329 10.4646 166.072 10.614C165.814 10.7634 165.593 10.9597 165.411 11.2005C165.227 11.4425 165.102 11.7377 165.036 12.0871H170.605C170.556 11.7537 170.443 11.4672 170.268 11.2252C170.093 10.9844 169.877 10.7881 169.619 10.6387C169.361 10.4893 169.078 10.3769 168.769 10.3016C168.46 10.2263 168.149 10.1892 167.833 10.1892H167.832Z" fill="#F2F1E7"/>
</svg>
