<svg width="174" height="26" viewBox="0 0 174 26" fill="none" xmlns="http://www.w3.org/2000/svg">
<path d="M0.582052 10.4636C0.582052 9.83137 0.722817 9.27324 1.00682 8.79044C1.28958 8.30764 1.66372 7.90387 2.13047 7.57912C2.59598 7.25437 3.12941 7.00865 3.72828 6.84196C4.32715 6.67526 4.94331 6.59253 5.57552 6.59253C6.49049 6.59253 7.37336 6.77528 8.22289 7.14201C9.07243 7.50874 9.72069 8.05822 10.1701 8.79044C10.2862 8.97443 10.3159 9.16458 10.2578 9.36462C10.1998 9.56465 10.0788 9.71406 9.89603 9.81408L8.77237 10.4883C8.68841 10.555 8.57234 10.5883 8.42293 10.5883C8.20684 10.5883 8.01545 10.5056 7.84875 10.3389C7.58204 10.0388 7.24124 9.81902 6.82512 9.67702C6.409 9.53625 5.99287 9.46464 5.57675 9.46464C5.12729 9.46464 4.73586 9.5486 4.40371 9.71406C4.07032 9.88076 3.90485 10.1228 3.90485 10.4389C3.90485 10.7723 4.0839 11.0427 4.44199 11.2501C4.80007 11.4588 5.27053 11.6539 5.85334 11.8367C6.80166 12.1367 7.59686 12.4528 8.23771 12.785C8.87856 13.1184 9.3947 13.4802 9.78613 13.8716C10.1776 14.263 10.4603 14.6915 10.6357 15.157C10.811 15.6237 10.8974 16.1473 10.8974 16.7301C10.8974 17.3957 10.748 17.9908 10.448 18.5156C10.1479 19.0404 9.74909 19.4812 9.249 19.8393C8.75015 20.1974 8.17968 20.4678 7.53882 20.6505C6.89797 20.8333 6.23613 20.9247 5.55329 20.9247C4.98776 20.9247 4.42964 20.858 3.88016 20.7246C3.33068 20.5913 2.81084 20.3962 2.31939 20.1381C1.82795 19.88 1.38713 19.5479 0.995704 19.1392C0.604278 18.7317 0.291877 18.2526 0.0597381 17.7031C-0.0242272 17.5031 -0.0192881 17.2993 0.0720859 17.0919C0.16346 16.8845 0.317808 16.7462 0.533895 16.6795L2.40706 16.0806C2.58981 16.0312 2.76885 16.0473 2.94419 16.13C3.11953 16.214 3.24795 16.3461 3.33068 16.5301C3.54677 16.9795 3.85546 17.308 4.2543 17.5167C4.65437 17.7253 5.06185 17.8291 5.47797 17.8291C5.92743 17.8291 6.3275 17.7167 6.67694 17.492C7.02639 17.2672 7.20173 16.9474 7.20173 16.5301C7.20173 16.1127 6.95601 15.7435 6.46456 15.4188C5.97312 15.094 5.31127 14.7742 4.47903 14.4569C4.01228 14.2741 3.54677 14.0741 3.08002 13.858C2.61327 13.6419 2.19344 13.3801 1.8193 13.0714C1.44517 12.764 1.14511 12.3972 0.920382 11.9725C0.695652 11.5477 0.583286 11.0452 0.583286 10.4623L0.582052 10.4636Z" fill="#011C39"/>
<path d="M26.3013 7.04321C26.5841 7.04321 26.8002 7.15928 26.9508 7.39266C27.1002 7.62603 27.1175 7.87546 27.0002 8.14217L19.3841 24.5228C19.3001 24.7228 19.168 24.8846 18.984 25.0093C18.8013 25.134 18.5926 25.197 18.3592 25.197H16.0119C15.7291 25.197 15.513 25.0809 15.3624 24.8476C15.213 24.6142 15.1957 24.3648 15.313 24.098L17.585 19.2034L12.1915 8.14094C12.0581 7.89151 12.0668 7.64579 12.2162 7.405C12.3656 7.16422 12.5817 7.04321 12.8657 7.04321H15.213C15.4464 7.04321 15.6538 7.10125 15.8378 7.21855C16.0205 7.33462 16.1539 7.49267 16.2379 7.69271L19.6841 14.71L22.9057 7.71864C23.0057 7.5186 23.1465 7.35685 23.3305 7.23214C23.5132 7.10742 23.7219 7.04445 23.9553 7.04445H26.3026L26.3013 7.04321Z" fill="#011C39"/>
<path d="M34.8659 6.61844C35.6648 6.61844 36.46 6.7555 37.2503 7.03085C38.0405 7.30498 38.7567 7.72233 39.3975 8.27922C40.0384 8.83734 40.5545 9.54858 40.946 10.4142C41.3374 11.2797 41.5325 12.3034 41.5325 13.4851V19.8022C41.5325 20.0023 41.4572 20.1764 41.3078 20.327C41.1583 20.4777 40.9744 20.5517 40.7583 20.5517H38.5863C38.3702 20.5517 38.1862 20.4764 38.0368 20.327C37.8874 20.1776 37.8121 20.0023 37.8121 19.8022V13.085C37.8121 12.6355 37.7244 12.2355 37.5503 11.886C37.375 11.5366 37.1416 11.2415 36.8514 10.9994C36.56 10.7587 36.2316 10.5796 35.8648 10.4623C35.4981 10.3462 35.124 10.287 34.7412 10.287C34.3917 10.287 34.0373 10.3413 33.6805 10.4487C33.3224 10.5574 32.9977 10.7278 32.7063 10.9612C32.4148 11.1945 32.1815 11.486 32.0074 11.8354C31.832 12.1848 31.7456 12.601 31.7456 13.0838V19.801C31.7456 20.001 31.674 20.1751 31.5332 20.3258C31.3912 20.4752 31.2122 20.5505 30.9961 20.5505H28.7982C28.5981 20.5505 28.424 20.4752 28.2734 20.3258C28.1227 20.1764 28.0486 20.001 28.0486 19.801V13.6332C28.0486 12.4343 28.2487 11.3946 28.6475 10.5117C29.0476 9.63007 29.5711 8.90155 30.2206 8.32738C30.8701 7.7532 31.6024 7.32473 32.4185 7.04073C33.2335 6.75797 34.0497 6.61597 34.8659 6.61597V6.61844Z" fill="#011C39"/>
<path d="M50.797 20.9518C49.9141 20.9518 49.1448 20.8098 48.4867 20.5271C47.8285 20.2443 47.284 19.8776 46.8506 19.4281C46.4172 18.9786 46.0924 18.4798 45.8763 17.9303C45.6603 17.3808 45.5516 16.8314 45.5516 16.2819V10.3389H43.7784C43.5784 10.3389 43.4043 10.2685 43.2537 10.1265C43.1043 9.98571 43.0289 9.80667 43.0289 9.58934V7.7915C43.0289 7.57541 43.1043 7.39143 43.2537 7.24202C43.4031 7.09261 43.5784 7.01729 43.7784 7.01729H45.5516V4.56995C45.5516 4.35386 45.622 4.17482 45.764 4.03282C45.906 3.89082 46.0838 3.82043 46.3011 3.82043H48.499C48.6991 3.82043 48.8732 3.89205 49.0238 4.03282C49.1732 4.17482 49.2485 4.35386 49.2485 4.56995V7.01729H52.2701C52.4701 7.01729 52.6442 7.09261 52.7948 7.24202C52.9442 7.39143 53.0196 7.57541 53.0196 7.7915V9.58934C53.0196 9.80543 52.9442 9.98448 52.7948 10.1265C52.6454 10.2685 52.4701 10.3389 52.2701 10.3389H49.2485V15.2076C49.2485 15.3916 49.2695 15.599 49.3115 15.8324C49.3523 16.0658 49.4276 16.2905 49.5362 16.5066C49.6449 16.7227 49.8017 16.9017 50.0104 17.0437C50.2178 17.1857 50.4809 17.2561 50.797 17.2561C51.1131 17.2561 51.3872 17.2191 51.6206 17.1438C51.8539 17.0684 52.0527 16.982 52.2194 16.882C52.3355 16.8153 52.4689 16.782 52.6195 16.782C52.9023 16.782 53.1184 16.8993 53.269 17.1314L54.3433 18.8292C54.4433 18.9959 54.4803 19.175 54.4556 19.3664C54.4309 19.5578 54.3346 19.7121 54.1679 19.8282C53.6851 20.1949 53.1517 20.474 52.5701 20.6641C51.9873 20.8555 51.3971 20.9518 50.797 20.9518Z" fill="#011C39"/>
<path d="M62.8819 10.2895C62.5325 10.2895 62.1781 10.3438 61.8212 10.4512C61.4632 10.5599 61.1384 10.7303 60.847 10.9636C60.5556 11.197 60.3222 11.4921 60.1481 11.8502C59.9728 12.2083 59.8863 12.6281 59.8863 13.1109V19.8035C59.8863 20.0035 59.8147 20.1776 59.674 20.3282C59.532 20.4777 59.3529 20.553 59.1368 20.553H56.9389C56.7389 20.553 56.5648 20.4777 56.4141 20.3282C56.2647 20.1788 56.1894 20.0035 56.1894 19.8035V1.72376C56.1894 1.52372 56.2647 1.34962 56.4141 1.19897C56.5635 1.04956 56.7389 0.974243 56.9389 0.974243H59.1368C59.3529 0.974243 59.532 1.04956 59.674 1.19897C59.8147 1.34838 59.8863 1.52372 59.8863 1.72376V7.64208C60.5185 7.25929 61.1804 6.98517 61.8719 6.81847C62.5621 6.65178 63.2412 6.60239 63.9068 6.66907C64.6217 6.71846 65.3256 6.8975 66.017 7.2062C66.7073 7.51489 67.3234 7.95201 67.8643 8.51754C68.4051 9.08307 68.8422 9.77825 69.1756 10.6031C69.509 11.4267 69.6745 12.3886 69.6745 13.4875V19.8047C69.6745 20.0047 69.5991 20.1788 69.4497 20.3295C69.3003 20.4789 69.1163 20.5542 68.9003 20.5542H66.7283C66.5122 20.5542 66.3282 20.4789 66.1788 20.3295C66.0294 20.1801 65.9541 20.0047 65.9541 19.8047V13.1122C65.9541 12.68 65.8701 12.2886 65.7046 11.9391C65.5379 11.5897 65.3182 11.2946 65.0428 11.0525C64.7687 10.8118 64.4439 10.6241 64.0685 10.4907C63.6944 10.3574 63.298 10.2907 62.8819 10.2907V10.2895Z" fill="#011C39"/>
<path d="M83.9324 19.0539C84.0658 19.47 83.9411 19.7787 83.5583 19.9775C83.0594 20.2109 82.4137 20.4232 81.6234 20.6146C80.8319 20.806 79.8132 20.9023 78.5648 20.9023C77.4819 20.9023 76.5052 20.748 75.631 20.4405C74.7568 20.1331 74.0085 19.6836 73.3837 19.0921C72.7589 18.5019 72.2761 17.7808 71.9353 16.9325C71.5945 16.083 71.4229 15.126 71.4229 14.0604V13.2109C71.4229 12.0292 71.6105 11.0216 71.9847 10.1894C72.3588 9.35711 72.8503 8.67057 73.4578 8.12974C74.0653 7.5889 74.7518 7.19377 75.5174 6.94311C76.283 6.69368 77.0658 6.56897 77.8647 6.56897C78.6142 6.56897 79.3465 6.68998 80.0626 6.93076C80.7776 7.17278 81.4234 7.53827 81.9975 8.02972C82.5717 8.52116 83.0335 9.12868 83.383 9.85226C83.7324 10.5758 83.9077 11.413 83.9077 12.3613V12.5367L83.883 12.612V12.712L83.9077 12.7873V13.2615C83.9077 13.7949 83.7238 14.2444 83.3583 14.6099C82.9928 14.9754 82.5507 15.1594 82.0346 15.1594H75.1173C75.2507 15.5261 75.4421 15.8459 75.6915 16.1213C75.9409 16.3966 76.2323 16.6201 76.5657 16.7954C76.8991 16.9708 77.2609 17.1041 77.6523 17.1955C78.0438 17.2869 78.4302 17.3326 78.813 17.3326C79.628 17.3326 80.3232 17.2622 80.8986 17.1202C81.4728 16.9794 81.9346 16.8251 82.284 16.6584C82.5001 16.5757 82.7088 16.5794 82.9088 16.6707C83.1088 16.7621 83.2422 16.9165 83.3089 17.1325L83.9337 19.0551L83.9324 19.0539ZM77.8141 10.1894C77.498 10.1894 77.1893 10.2227 76.8905 10.2894C76.5904 10.3561 76.3114 10.4647 76.0545 10.6141C75.7965 10.7635 75.5754 10.9599 75.3927 11.2006C75.2087 11.4427 75.084 11.7378 75.0185 12.0872H80.5874C80.538 11.7538 80.4257 11.4674 80.2503 11.2253C80.075 10.9846 79.8589 10.7882 79.6008 10.6388C79.3428 10.4894 79.06 10.377 78.7513 10.3017C78.4426 10.2264 78.1314 10.1894 77.8153 10.1894H77.8141Z" fill="#011C39"/>
<path d="M85.9796 10.4636C85.9796 9.83137 86.1204 9.27324 86.4044 8.79044C86.6872 8.30764 87.0613 7.90387 87.5281 7.57912C87.9936 7.25437 88.527 7.00865 89.1259 6.84196C89.7247 6.67526 90.3409 6.59253 90.9731 6.59253C91.8881 6.59253 92.7709 6.77528 93.6205 7.14201C94.47 7.50874 95.1183 8.05822 95.5677 8.79044C95.6838 8.97443 95.7134 9.16458 95.6554 9.36462C95.5974 9.56465 95.4764 9.71406 95.2936 9.81408L94.17 10.4883C94.086 10.555 93.9699 10.5883 93.8205 10.5883C93.6044 10.5883 93.413 10.5056 93.2463 10.3389C92.9796 10.0388 92.6388 9.81902 92.2227 9.67702C91.8066 9.53625 91.3905 9.46464 90.9743 9.46464C90.5249 9.46464 90.1335 9.5486 89.8013 9.71406C89.4679 9.88076 89.3024 10.1228 89.3024 10.4389C89.3024 10.7723 89.4815 11.0427 89.8396 11.2501C90.1977 11.4588 90.6681 11.6539 91.2509 11.8367C92.1992 12.1367 92.9944 12.4528 93.6353 12.785C94.2761 13.1184 94.7923 13.4802 95.1837 13.8716C95.5751 14.263 95.8579 14.6915 96.0332 15.157C96.2086 15.6237 96.295 16.1473 96.295 16.7301C96.295 17.3957 96.1456 17.9908 95.8456 18.5156C95.5455 19.0404 95.1467 19.4812 94.6466 19.8393C94.1477 20.1974 93.5773 20.4678 92.9364 20.6505C92.2956 20.8333 91.6337 20.9247 90.9509 20.9247C90.3853 20.9247 89.8272 20.858 89.2777 20.7246C88.7283 20.5913 88.2084 20.3962 87.717 20.1381C87.2255 19.88 86.7847 19.5479 86.3933 19.1392C86.0019 18.7317 85.6895 18.2526 85.4573 17.7031C85.3734 17.5031 85.3783 17.2993 85.4697 17.0919C85.561 16.8845 85.7154 16.7462 85.9315 16.6795L87.8046 16.0806C87.9874 16.0312 88.1664 16.0473 88.3418 16.13C88.5171 16.214 88.6455 16.3461 88.7283 16.5301C88.9444 16.9795 89.253 17.308 89.6519 17.5167C90.052 17.7253 90.4594 17.8291 90.8756 17.8291C91.325 17.8291 91.7251 17.7167 92.0745 17.492C92.424 17.2672 92.5993 16.9474 92.5993 16.5301C92.5993 16.1127 92.3536 15.7435 91.8621 15.4188C91.3707 15.094 90.7089 14.7742 89.8766 14.4569C89.4099 14.2741 88.9444 14.0741 88.4776 13.858C88.0109 13.6419 87.591 13.3801 87.2169 13.0714C86.8427 12.764 86.5427 12.3972 86.318 11.9725C86.0932 11.5477 85.9809 11.0452 85.9809 10.4623L85.9796 10.4636Z" fill="#011C39"/>
<path d="M100.936 20.5517C100.72 20.5517 100.541 20.4764 100.399 20.3269C100.257 20.1775 100.187 20.0022 100.187 19.8022V10.3388H98.689C98.4889 10.3388 98.3148 10.2684 98.1642 10.1264C98.0148 9.98563 97.9395 9.80659 97.9395 9.58927V7.79142C97.9395 7.57533 98.0148 7.39135 98.1642 7.24194C98.3136 7.09253 98.4889 7.01721 98.689 7.01721H103.108C103.324 7.01721 103.508 7.09253 103.658 7.24194C103.807 7.39135 103.882 7.57533 103.882 7.79142V19.8022C103.882 20.0022 103.807 20.1763 103.658 20.3269C103.508 20.4764 103.324 20.5517 103.108 20.5517H100.936Z" fill="#011C39"/>
<path d="M102.036 4.74527C101.37 4.74527 100.8 4.51684 100.325 4.05873C99.8513 3.60063 99.6143 3.0388 99.6143 2.37325C99.6143 2.03986 99.6772 1.7324 99.8019 1.44964C99.9267 1.16687 100.102 0.917444 100.327 0.700122C100.551 0.484035 100.81 0.313635 101.101 0.187687C101.392 0.062974 101.704 0 102.037 0C102.37 0 102.678 0.062974 102.961 0.187687C103.243 0.3124 103.498 0.484035 103.722 0.700122C103.947 0.91621 104.122 1.16687 104.247 1.44964C104.372 1.7324 104.435 2.0411 104.435 2.37325C104.435 2.70541 104.373 3.01905 104.247 3.30922C104.122 3.60063 103.947 3.85006 103.722 4.05873C103.498 4.26741 103.243 4.43287 102.961 4.55759C102.678 4.6823 102.369 4.74527 102.037 4.74527H102.036Z" fill="#011C39"/>
<path d="M34.8635 4.74527C34.198 4.74527 33.6275 4.51684 33.1534 4.05873C32.6792 3.60063 32.4421 3.0388 32.4421 2.37325C32.4421 2.03986 32.5051 1.7324 32.6298 1.44964C32.7545 1.16687 32.9299 0.917444 33.1546 0.700122C33.3793 0.484035 33.6374 0.313635 33.9288 0.187687C34.2202 0.062974 34.5314 0 34.8648 0C35.1982 0 35.5056 0.062974 35.7884 0.187687C36.0712 0.3124 36.3255 0.484035 36.5503 0.700122C36.775 0.91621 36.9503 1.16687 37.075 1.44964C37.1998 1.7324 37.2627 2.0411 37.2627 2.37325C37.2627 2.70541 37.201 3.01905 37.075 3.30922C36.9503 3.60063 36.775 3.85006 36.5503 4.05873C36.3255 4.26741 36.0712 4.43287 35.7884 4.55759C35.5056 4.6823 35.1969 4.74527 34.8648 4.74527H34.8635Z" fill="#011C39"/>
<path d="M144.636 4.74527C143.97 4.74527 143.4 4.51684 142.926 4.05873C142.451 3.60063 142.214 3.0388 142.214 2.37325C142.214 2.03986 142.277 1.7324 142.402 1.44964C142.527 1.16687 142.702 0.917444 142.927 0.700122C143.151 0.484035 143.41 0.313635 143.701 0.187687C143.992 0.062974 144.304 0 144.637 0C144.97 0 145.278 0.062974 145.561 0.187687C145.843 0.3124 146.098 0.484035 146.322 0.700122C146.547 0.91621 146.722 1.16687 146.847 1.44964C146.972 1.7324 147.035 2.0411 147.035 2.37325C147.035 2.70541 146.973 3.01905 146.847 3.30922C146.722 3.60063 146.547 3.85006 146.322 4.05873C146.098 4.26741 145.843 4.43287 145.561 4.55759C145.278 4.6823 144.969 4.74527 144.637 4.74527H144.636Z" fill="#011C39"/>
<path d="M153.526 4.74527C152.861 4.74527 152.29 4.51684 151.816 4.05873C151.342 3.60063 151.105 3.0388 151.105 2.37325C151.105 2.03986 151.168 1.7324 151.293 1.44964C151.417 1.16687 151.593 0.917444 151.817 0.700122C152.042 0.484035 152.3 0.313635 152.592 0.187687C152.883 0.062974 153.194 0 153.528 0C153.861 0 154.168 0.062974 154.451 0.187687C154.734 0.3124 154.988 0.484035 155.213 0.700122C155.438 0.91621 155.613 1.16687 155.738 1.44964C155.863 1.7324 155.926 2.0411 155.926 2.37325C155.926 2.70541 155.864 3.01905 155.738 3.30922C155.613 3.60063 155.438 3.85006 155.213 4.05873C154.988 4.26741 154.734 4.43287 154.451 4.55759C154.168 4.6823 153.86 4.74527 153.528 4.74527H153.526Z" fill="#011C39"/>
<path d="M106.655 10.4636C106.655 9.83137 106.795 9.27324 107.079 8.79044C107.362 8.30764 107.736 7.90387 108.203 7.57912C108.669 7.25437 109.202 7.00865 109.801 6.84196C110.4 6.67526 111.016 6.59253 111.648 6.59253C112.563 6.59253 113.446 6.77528 114.296 7.14201C115.145 7.50874 115.793 8.05822 116.243 8.79044C116.359 8.97443 116.388 9.16458 116.33 9.36462C116.272 9.56465 116.151 9.71406 115.969 9.81408L114.845 10.4883C114.761 10.555 114.645 10.5883 114.496 10.5883C114.279 10.5883 114.088 10.5056 113.921 10.3389C113.655 10.0388 113.314 9.81902 112.898 9.67702C112.482 9.53625 112.066 9.46464 111.649 9.46464C111.2 9.46464 110.808 9.5486 110.476 9.71406C110.143 9.88076 109.977 10.1228 109.977 10.4389C109.977 10.7723 110.157 11.0427 110.515 11.2501C110.873 11.4588 111.343 11.6539 111.926 11.8367C112.874 12.1367 113.669 12.4528 114.31 12.785C114.951 13.1184 115.467 13.4802 115.859 13.8716C116.25 14.263 116.533 14.6915 116.708 15.157C116.884 15.6237 116.97 16.1473 116.97 16.7301C116.97 17.3957 116.821 17.9908 116.521 18.5156C116.221 19.0404 115.822 19.4812 115.322 19.8393C114.823 20.1974 114.252 20.4678 113.611 20.6505C112.971 20.8333 112.309 20.9247 111.626 20.9247C111.06 20.9247 110.502 20.858 109.953 20.7246C109.403 20.5913 108.883 20.3962 108.392 20.1381C107.901 19.88 107.46 19.5479 107.068 19.1392C106.677 18.7317 106.365 18.2526 106.132 17.7031C106.048 17.5031 106.053 17.2993 106.145 17.0919C106.236 16.8845 106.39 16.7462 106.607 16.6795L108.48 16.0806C108.662 16.0312 108.841 16.0473 109.017 16.13C109.192 16.214 109.321 16.3461 109.403 16.5301C109.619 16.9795 109.928 17.308 110.327 17.5167C110.727 17.7253 111.134 17.8291 111.551 17.8291C112 17.8291 112.4 17.7167 112.75 17.492C113.099 17.2672 113.274 16.9474 113.274 16.5301C113.274 16.1127 113.029 15.7435 112.537 15.4188C112.046 15.094 111.384 14.7742 110.552 14.4569C110.085 14.2741 109.619 14.0741 109.153 13.858C108.686 13.6419 108.266 13.3801 107.892 13.0714C107.518 12.764 107.218 12.3972 106.993 11.9725C106.768 11.5477 106.656 11.0452 106.656 10.4623L106.655 10.4636Z" fill="#011C39"/>
<path d="M130.95 19.0539C131.084 19.47 130.959 19.7787 130.576 19.9775C130.077 20.2109 129.432 20.4232 128.641 20.6146C127.85 20.806 126.831 20.9023 125.583 20.9023C124.5 20.9023 123.523 20.748 122.649 20.4405C121.775 20.1331 121.026 19.6836 120.402 19.0921C119.777 18.5019 119.294 17.7808 118.953 16.9325C118.612 16.083 118.441 15.126 118.441 14.0604V13.2109C118.441 12.0292 118.629 11.0216 119.003 10.1894C119.377 9.35711 119.868 8.67057 120.476 8.12974C121.083 7.5889 121.77 7.19377 122.535 6.94311C123.301 6.69368 124.084 6.56897 124.883 6.56897C125.632 6.56897 126.364 6.68998 127.081 6.93076C127.796 7.17278 128.441 7.53827 129.016 8.02972C129.59 8.52116 130.052 9.12868 130.401 9.85226C130.75 10.5758 130.926 11.413 130.926 12.3613V12.5367L130.901 12.612V12.712L130.926 12.7873V13.2615C130.926 13.7949 130.742 14.2444 130.376 14.6099C130.011 14.9754 129.569 15.1594 129.053 15.1594H122.135C122.269 15.5261 122.46 15.8459 122.71 16.1213C122.959 16.3966 123.25 16.6201 123.584 16.7954C123.917 16.9708 124.279 17.1041 124.67 17.1955C125.062 17.2869 125.448 17.3326 125.831 17.3326C126.646 17.3326 127.341 17.2622 127.917 17.1202C128.491 16.9794 128.953 16.8251 129.302 16.6584C129.518 16.5757 129.727 16.5794 129.927 16.6707C130.127 16.7621 130.26 16.9165 130.327 17.1325L130.952 19.0551L130.95 19.0539ZM124.832 10.1894C124.516 10.1894 124.207 10.2227 123.908 10.2894C123.608 10.3561 123.329 10.4647 123.073 10.6141C122.814 10.7635 122.593 10.9599 122.411 11.2006C122.227 11.4427 122.102 11.7378 122.037 12.0872H127.605C127.556 11.7538 127.444 11.4674 127.268 11.2253C127.093 10.9846 126.877 10.7882 126.619 10.6388C126.361 10.4894 126.078 10.377 125.769 10.3017C125.461 10.2264 125.149 10.1894 124.833 10.1894H124.832Z" fill="#011C39"/>
<path d="M134.82 16.5312C135.37 16.5312 135.84 16.7276 136.232 17.1178C136.623 17.5092 136.818 17.9797 136.818 18.5291C136.818 19.0786 136.622 19.5738 136.232 19.9652C135.842 20.3566 135.37 20.5517 134.82 20.5517C134.271 20.5517 133.776 20.3566 133.384 19.9652C132.993 19.5738 132.798 19.0959 132.798 18.5291C132.798 17.9624 132.993 17.5092 133.384 17.1178C133.776 16.7263 134.254 16.5312 134.82 16.5312Z" fill="#011C39"/>
<path d="M153.622 6.61846C154.488 6.63574 155.291 6.81479 156.031 7.15559C156.772 7.49639 157.413 7.95943 157.954 8.54101C158.495 9.12383 158.92 9.81037 159.227 10.6006C159.534 11.3909 159.689 12.2528 159.689 13.185V19.8022C159.689 20.0023 159.614 20.1764 159.464 20.327C159.315 20.4764 159.131 20.5518 158.915 20.5518H156.743C156.527 20.5518 156.343 20.4764 156.193 20.327C156.044 20.1776 155.968 20.0023 155.968 19.8022V13.2851C155.968 12.9517 155.926 12.6195 155.844 12.2861C155.76 11.9527 155.631 11.649 155.457 11.3748C155.282 11.1007 155.05 10.8673 154.758 10.676C154.467 10.4846 154.113 10.3722 153.698 10.3389C152.999 10.2895 152.407 10.4883 151.925 10.9377C151.342 11.4872 151.05 12.2281 151.05 13.1603V19.8022C151.05 20.0023 150.975 20.1764 150.826 20.327C150.676 20.4764 150.501 20.5518 150.301 20.5518H148.103C147.887 20.5518 147.708 20.4764 147.566 20.327C147.424 20.1776 147.353 20.0023 147.353 19.8022V13.2851C147.353 12.9517 147.311 12.6195 147.229 12.2861C147.145 11.9527 147.016 11.649 146.842 11.3748C146.667 11.1007 146.435 10.8673 146.143 10.676C145.852 10.4846 145.497 10.3722 145.083 10.3389C144.366 10.2895 143.768 10.4883 143.285 10.9377C142.702 11.4872 142.41 12.2367 142.41 13.185V19.8022C142.41 20.0023 142.339 20.1764 142.198 20.327C142.056 20.4764 141.877 20.5518 141.661 20.5518H139.463C139.263 20.5518 139.089 20.4764 138.938 20.327C138.788 20.1776 138.714 20.0023 138.714 19.8022V13.3344C138.714 12.4528 138.868 11.6033 139.175 10.7871C139.483 9.97213 139.911 9.25101 140.461 8.62745C141.01 8.00388 141.667 7.50873 142.434 7.142C143.2 6.77651 144.049 6.60117 144.981 6.61722C145.831 6.65056 146.617 6.8259 147.341 7.142C148.065 7.45811 148.693 7.90016 149.227 8.46569C149.293 8.39901 149.335 8.34962 149.351 8.31628C149.934 7.7668 150.591 7.34204 151.324 7.04322C152.057 6.74317 152.822 6.6024 153.621 6.61846H153.622Z" fill="#011C39"/>
<path d="M173.948 19.0539C174.081 19.47 173.957 19.7787 173.574 19.9775C173.075 20.2109 172.429 20.4232 171.639 20.6146C170.848 20.806 169.829 20.9023 168.581 20.9023C167.498 20.9023 166.521 20.748 165.647 20.4405C164.772 20.1331 164.024 19.6836 163.399 19.0921C162.775 18.5019 162.292 17.7808 161.951 16.9325C161.61 16.083 161.439 15.126 161.439 14.0604V13.2109C161.439 12.0292 161.626 11.0216 162 10.1894C162.375 9.35711 162.866 8.67057 163.473 8.12974C164.081 7.5889 164.768 7.19377 165.533 6.94311C166.299 6.69368 167.082 6.56897 167.88 6.56897C168.63 6.56897 169.362 6.68998 170.078 6.93076C170.793 7.17278 171.439 7.53827 172.013 8.02972C172.587 8.52116 173.049 9.12868 173.399 9.85226C173.748 10.5758 173.923 11.413 173.923 12.3613V12.5367L173.899 12.612V12.712L173.923 12.7873V13.2615C173.923 13.7949 173.739 14.2444 173.374 14.6099C173.008 14.9754 172.566 15.1594 172.05 15.1594H165.133C165.266 15.5261 165.458 15.8459 165.707 16.1213C165.957 16.3966 166.248 16.6201 166.581 16.7954C166.915 16.9708 167.277 17.1041 167.668 17.1955C168.059 17.2869 168.446 17.3326 168.829 17.3326C169.644 17.3326 170.339 17.2622 170.914 17.1202C171.488 16.9794 171.95 16.8251 172.3 16.6584C172.516 16.5757 172.724 16.5794 172.924 16.6707C173.125 16.7621 173.258 16.9165 173.325 17.1325L173.949 19.0551L173.948 19.0539ZM167.831 10.1894C167.515 10.1894 167.206 10.2227 166.907 10.2894C166.607 10.3561 166.328 10.4647 166.071 10.6141C165.813 10.7635 165.592 10.9599 165.41 11.2006C165.226 11.4427 165.101 11.7378 165.035 12.0872H170.604C170.555 11.7538 170.443 11.4674 170.267 11.2253C170.092 10.9846 169.876 10.7882 169.618 10.6388C169.36 10.4894 169.077 10.377 168.768 10.3017C168.46 10.2264 168.148 10.1894 167.832 10.1894H167.831Z" fill="#011C39"/>
</svg>
