<svg width="495" height="202" viewBox="0 0 495 202" fill="none" xmlns="http://www.w3.org/2000/svg">
<path d="M225.699 45.6648C219.595 45.6648 214.364 43.4665 210.015 39.058C205.666 34.6496 203.492 29.243 203.492 22.8383C203.492 19.63 204.07 16.6713 205.213 13.9502C206.357 11.229 207.965 8.82876 210.026 6.73742C212.087 4.65797 214.454 3.01818 217.127 1.80615C219.799 0.606012 222.653 0 225.711 0C228.768 0 231.588 0.606012 234.181 1.80615C236.774 3.00629 239.107 4.65797 241.168 6.73742C243.229 8.81688 244.837 11.229 245.981 13.9502C247.125 16.6713 247.702 19.6419 247.702 22.8383C247.702 26.0347 247.136 29.0529 245.981 31.8453C244.837 34.6496 243.229 37.0499 241.168 39.058C239.107 41.0662 236.774 42.6585 234.181 43.8586C231.588 45.0587 228.757 45.6648 225.711 45.6648H225.699Z" fill="#353535"/>
<path d="M307.234 45.6648C301.131 45.6648 295.899 43.4665 291.55 39.058C287.202 34.6496 285.027 29.243 285.027 22.8383C285.027 19.63 285.605 16.6713 286.749 13.9502C287.892 11.229 289.5 8.82876 291.562 6.73742C293.623 4.65797 295.989 3.01818 298.662 1.80615C301.334 0.606012 304.188 0 307.246 0C310.303 0 313.123 0.606012 315.716 1.80615C318.31 3.00629 320.642 4.65797 322.703 6.73742C324.765 8.81688 326.373 11.229 327.516 13.9502C328.66 16.6713 329.238 19.6419 329.238 22.8383C329.238 26.0347 328.671 29.0529 327.516 31.8453C326.373 34.6496 324.765 37.0499 322.703 39.058C320.642 41.0662 318.31 42.6585 315.716 43.8586C313.123 45.0587 310.292 45.6648 307.246 45.6648H307.234Z" fill="#353535"/>
<path d="M5.33807 100.693C5.33807 94.6094 6.62904 89.2385 9.23364 84.5924C11.8269 79.9463 15.2582 76.0607 19.5388 72.9356C23.8081 69.8105 28.7002 67.4458 34.1925 65.8417C39.6848 64.2375 45.3357 63.4414 51.1337 63.4414C59.5251 63.4414 67.622 65.2 75.4132 68.7292C83.2043 72.2583 89.1496 77.546 93.2717 84.5924C94.3361 86.3629 94.6079 88.1928 94.0757 90.1178C93.5434 92.0428 92.4337 93.4806 90.7577 94.4431L80.4525 100.931C79.6824 101.573 78.618 101.893 77.2477 101.893C75.2659 101.893 73.5107 101.097 71.9819 99.4932C69.5358 96.6057 66.4103 94.4906 62.594 93.1241C58.7777 91.7695 54.9614 91.0803 51.1451 91.0803C47.023 91.0803 43.4332 91.8883 40.3869 93.4806C37.3294 95.0847 35.8119 97.4137 35.8119 100.456C35.8119 103.664 37.4539 106.266 40.738 108.263C44.0221 110.271 48.3366 112.148 53.6817 113.907C62.3788 116.794 69.6717 119.836 75.5491 123.033C81.4264 126.241 86.16 129.722 89.7498 133.489C93.3396 137.256 95.9329 141.379 97.5409 145.859C99.149 150.351 99.9417 155.389 99.9417 160.997C99.9417 167.402 98.5715 173.13 95.8196 178.18C93.0678 183.23 89.4101 187.472 84.8237 190.918C80.2487 194.364 75.0168 196.966 69.1395 198.725C63.2621 200.483 57.1923 201.363 50.9299 201.363C45.7434 201.363 40.6247 200.721 35.5854 199.438C30.5461 198.154 25.7785 196.277 21.2714 193.793C16.7643 191.31 12.7215 188.113 9.13172 184.18C5.5419 180.259 2.67684 175.649 0.547865 170.361C-0.222191 168.436 -0.176893 166.475 0.661109 164.479C1.49911 162.483 2.91465 161.152 4.89642 160.51L22.0755 154.747C23.7515 154.272 25.3935 154.426 27.0016 155.222C28.6096 156.03 29.7873 157.302 30.5461 159.072C32.5278 163.398 35.3589 166.558 39.0167 168.567C42.6858 170.575 46.4228 171.573 50.2391 171.573C54.3612 171.573 58.0303 170.492 61.2351 168.329C64.4399 166.166 66.0479 163.089 66.0479 159.072C66.0479 155.056 63.7944 151.503 59.2873 148.378C54.7802 145.253 48.7103 142.175 41.0777 139.122C36.7971 137.363 32.5278 135.438 28.2472 133.359C23.9666 131.279 20.1163 128.76 16.6851 125.789C13.2538 122.831 10.502 119.301 8.44094 115.214C6.37991 111.126 5.34939 106.29 5.34939 100.681L5.33807 100.693Z" fill="#353535"/>
<path d="M135.682 159.084C140.721 159.084 145.036 160.973 148.626 164.728C152.216 168.495 154.005 173.022 154.005 178.31C154.005 183.598 152.204 188.363 148.626 192.129C145.047 195.896 140.721 197.774 135.682 197.774C130.643 197.774 126.102 195.896 122.512 192.129C118.922 188.363 117.133 183.764 117.133 178.31C117.133 172.856 118.922 168.495 122.512 164.728C126.102 160.961 130.484 159.084 135.682 159.084Z" fill="#353535"/>
<path d="M308.129 63.6915C316.067 63.8579 323.428 65.5808 330.222 68.8604C337.017 72.14 342.894 76.596 347.855 82.1927C352.815 87.8013 356.71 94.408 359.53 102.013C362.35 109.618 363.765 117.912 363.765 126.883V190.562C363.765 192.487 363.074 194.162 361.704 195.612C360.334 197.05 358.647 197.775 356.665 197.775H336.745C334.764 197.775 333.076 197.05 331.706 195.612C330.336 194.174 329.645 192.487 329.645 190.562V127.846C329.645 124.637 329.26 121.441 328.501 118.233C327.731 115.024 326.553 112.101 324.957 109.463C323.349 106.825 321.22 104.579 318.547 102.738C315.875 100.896 312.624 99.8146 308.819 99.4937C302.41 99.0184 296.986 100.932 292.558 105.257C287.213 110.545 284.54 117.674 284.54 126.645V190.562C284.54 192.487 283.849 194.162 282.479 195.612C281.109 197.05 279.501 197.775 277.666 197.775H257.509C255.527 197.775 253.885 197.05 252.583 195.612C251.28 194.174 250.635 192.487 250.635 190.562V127.846C250.635 124.637 250.25 121.441 249.491 118.233C248.721 115.024 247.543 112.101 245.947 109.463C244.339 106.825 242.21 104.579 239.537 102.738C236.865 100.896 233.614 99.8146 229.809 99.4937C223.241 99.0184 217.749 100.932 213.321 105.257C207.976 110.545 205.304 117.757 205.304 126.883V190.562C205.304 192.487 204.647 194.162 203.356 195.612C202.053 197.05 200.411 197.775 198.43 197.775H178.272C176.438 197.775 174.841 197.05 173.459 195.612C172.078 194.174 171.398 192.487 171.398 190.562V128.321C171.398 119.837 172.814 111.662 175.634 103.807C178.454 95.9646 182.383 89.0252 187.422 83.0245C192.462 77.0238 198.486 72.2589 205.519 68.7297C212.54 65.2125 220.331 63.5252 228.881 63.6796C236.672 64.0005 243.886 65.6878 250.522 68.7297C257.158 71.7717 262.922 76.0256 267.814 81.4679C268.425 80.8262 268.811 80.3509 268.958 80.0301C274.303 74.7423 280.327 70.6547 287.054 67.7791C293.769 64.8917 300.791 63.537 308.117 63.6915H308.129Z" fill="#353535"/>
<path d="M494.524 183.36C495.747 187.364 494.603 190.335 491.093 192.248C486.518 194.494 480.595 196.537 473.347 198.379C466.088 200.221 456.746 201.148 445.297 201.148C435.365 201.148 426.408 199.663 418.39 196.704C410.373 193.745 403.51 189.42 397.78 183.728C392.05 178.048 387.622 171.109 384.496 162.945C381.371 154.77 379.797 145.561 379.797 135.306V127.131C379.797 115.76 381.518 106.063 384.949 98.0546C388.381 90.0457 392.888 83.439 398.459 78.2344C404.031 73.0299 410.327 69.2274 417.348 66.8153C424.37 64.415 431.549 63.2148 438.876 63.2148C445.75 63.2148 452.465 64.3793 459.033 66.6964C465.59 69.0254 471.513 72.5427 476.779 77.2719C482.044 82.0012 486.28 87.8474 489.485 94.8106C492.689 101.774 494.297 109.83 494.297 118.956V120.643L494.071 121.368V122.331L494.297 123.056V127.618C494.297 132.752 492.61 137.077 489.258 140.594C485.906 144.111 481.852 145.882 477.118 145.882H413.679C414.902 149.411 416.658 152.489 418.945 155.139C421.233 157.788 423.905 159.939 426.963 161.626C430.02 163.314 433.338 164.597 436.928 165.476C440.518 166.356 444.063 166.795 447.573 166.795C455.047 166.795 461.423 166.118 466.7 164.752C471.966 163.397 476.201 161.912 479.406 160.307C481.388 159.511 483.301 159.547 485.136 160.426C486.971 161.306 488.194 162.791 488.805 164.87L494.535 183.372L494.524 183.36ZM438.423 98.0546C435.524 98.0546 432.693 98.3754 429.952 99.0171C427.201 99.6587 424.641 100.704 422.286 102.142C419.919 103.58 417.892 105.469 416.216 107.786C414.529 110.115 413.385 112.955 412.785 116.318H463.858C463.405 113.11 462.374 110.353 460.766 108.024C459.158 105.707 457.176 103.818 454.809 102.38C452.443 100.942 449.849 99.8607 447.018 99.1359C444.187 98.4111 441.333 98.0546 438.434 98.0546H438.423Z" fill="#353535"/>
</svg>
